# This file uses centimeters as units for non-parametric coordinates.

mtllib pieDer1.mtl
g default
v 0.065079 -0.106709 0.123712
v 0.031866 -0.205732 0.067898
v 0.029583 -0.161482 0.116463
v 0.081461 -0.182472 -0.009353
v 0.083492 -0.150390 -0.011549
v 0.001395 -0.190826 0.058849
v -0.006653 -0.148727 0.108305
v -0.029371 -0.154675 0.030671
v -0.018629 -0.172880 0.036955
v -0.032166 -0.139380 0.056088
v 0.074936 -0.163983 -0.034592
v 0.083191 -0.199157 0.028245
v 0.087628 -0.158285 0.053989
v 0.066684 -0.164583 0.105261
v 0.065367 -0.210338 0.061623
v 0.029195 -0.109646 0.135489
v -0.067132 -0.090367 -0.050479
v 0.018099 -0.082806 -0.103275
v -0.012353 -0.106131 0.125233
v -0.055585 -0.088565 0.015763
v -0.062714 -0.083645 -0.098800
v -0.027475 -0.078423 -0.119717
v 0.071778 -0.099134 -0.046543
v 0.086510 -0.102233 0.048305
v -0.051520 -0.136320 -0.014478
v 0.006535 -0.123380 -0.103982
v -0.066611 -0.127733 -0.072192
v -0.038729 -0.120632 -0.107861
v 0.055272 -0.136651 -0.069635
v 0.068378 -0.185633 -0.049904
v 0.043541 -0.160918 -0.077636
v 0.003756 -0.145821 -0.102539
v -0.036634 -0.141807 -0.102466
v -0.057682 -0.147458 -0.065902
v -0.038089 -0.161281 -0.012761
v -0.016561 -0.185841 0.023182
v 0.000264 -0.206304 0.037588
v 0.026067 -0.229996 0.049318
v 0.063887 -0.247523 0.047293
v 0.082590 -0.230277 0.012156
v 0.078025 -0.208963 -0.024036
v -0.038726 -0.018466 -0.132506
v -0.005434 -0.012797 -0.143420
v 0.031696 -0.014250 -0.114588
v 0.070776 -0.019786 -0.055916
v 0.079665 -0.028112 0.035106
v 0.058710 -0.036267 0.113732
v 0.025188 -0.048089 0.135800
v -0.039514 -0.067192 0.135730
v -0.086402 -0.059430 0.008651
v -0.101726 -0.033595 -0.098991
v -0.136546 -0.031277 -0.100789
v -0.066349 -0.024094 -0.114369
v -0.001411 -0.031037 0.125448
v -0.054476 -0.050094 0.124667
v -0.029044 0.016929 0.050890
v -0.071416 -0.004183 0.052801
v -0.049099 0.029983 -0.057382
v -0.083487 0.009595 -0.050797
v -0.052120 -0.002416 -0.120517
v -0.082269 -0.013937 -0.105117
vn 0.886781 -0.332099 0.321448
vn 0.882578 -0.328049 0.336808
vn 0.883777 -0.329190 0.332524
vn 0.875764 -0.321750 0.359881
vn -0.263319 -0.248264 -0.932217
vn -0.422290 -0.264206 -0.867102
vn -0.322188 -0.254935 -0.911703
vn -0.462305 -0.267114 -0.845532
vn 0.952317 0.125504 0.278102
vn 0.953127 0.131310 0.272593
vn 0.953044 0.130693 0.273179
vn 0.953717 0.135847 0.268270
vn -0.126079 -0.687736 -0.714929
vn -0.873440 -0.483593 0.056918
vn -0.369297 -0.723457 -0.583292
vn -0.899025 -0.404505 0.167716
vn -0.495937 -0.247856 -0.832234
vn -0.970285 -0.114900 -0.212943
vn -0.695361 -0.221213 -0.683767
vn -0.990865 -0.087345 -0.102746
vn 0.141518 -0.728421 0.670354
vn 0.076721 -0.705048 0.704997
vn 0.114393 -0.719128 0.685397
vn 0.040430 -0.690212 0.722477
vn -0.384361 -0.732915 0.561340
vn -0.454300 -0.684061 0.570677
vn -0.415786 -0.711875 0.565999
vn -0.491025 -0.655302 0.573997
vn 0.921740 0.057280 0.383556
vn 0.949392 -0.015306 0.313721
vn 0.952125 -0.024383 0.304735
vn 0.961134 -0.059309 0.269638
vn 0.802643 0.162719 -0.573835
vn 0.802268 -0.083497 -0.591096
vn 0.808576 0.029466 -0.587653
vn 0.787312 -0.186879 -0.587551
vn 0.949024 -0.080933 -0.304635
vn 0.949024 -0.080933 -0.304635
vn 0.949024 -0.080933 -0.304635
vn 0.254770 -0.287306 0.923335
vn 0.292898 -0.309542 0.904652
vn 0.275901 -0.299669 0.913278
vn 0.318830 -0.324479 0.890540
vn -0.861494 -0.446980 0.240909
vn -0.844717 -0.490057 0.215168
vn -0.855879 -0.462246 0.231949
vn -0.840231 -0.500436 0.208748
vn 0.995274 0.001099 -0.097096
vn 0.991161 0.036543 -0.127529
vn 0.992314 0.028297 -0.120468
vn 0.986430 0.064186 -0.151117
vn 0.950699 -0.075190 -0.300862
vn 0.951602 0.003785 -0.307311
vn 0.951863 -0.009155 -0.306386
vn 0.949447 0.048741 -0.310121
vn 0.310656 0.015420 0.950397
vn 0.392627 0.078220 0.916365
vn 0.453788 0.126922 0.882025
vn 0.500845 0.165644 0.849539
vn 0.275101 -0.406993 -0.871020
vn 0.472547 -0.313472 -0.823672
vn 0.390001 -0.355891 -0.849259
vn 0.588817 -0.243942 -0.770576
vn -0.867680 -0.420395 0.265328
vn -0.875625 -0.418036 0.241923
vn -0.875343 -0.418127 0.242783
vn -0.876425 -0.417775 0.239466
vn -0.316137 -0.328979 0.889849
vn -0.281435 -0.360436 0.889314
vn -0.290586 -0.352271 0.889643
vn -0.251722 -0.386323 0.887350
vn -0.774406 -0.596798 0.210065
vn -0.760879 -0.613549 0.211237
vn -0.713461 -0.667081 0.214422
vn -0.696666 -0.684343 0.215248
vn 0.852067 -0.054446 -0.520593
vn 0.881488 -0.043722 -0.470179
vn 0.905409 -0.033897 -0.423184
vn 0.940513 -0.016736 -0.339345
vn -0.939559 -0.236662 0.247428
vn -0.951461 -0.218346 0.216905
vn -0.953540 -0.214883 0.211157
vn -0.965890 -0.192149 0.173597
vn -0.811138 -0.451457 0.371810
vn -0.819677 -0.456779 0.345662
vn -0.815770 -0.454338 0.357906
vn -0.829819 -0.463163 0.311257
vn -0.873174 -0.454051 0.177213
vn -0.873174 -0.454051 0.177213
vn -0.873174 -0.454051 0.177213
vn -0.241246 -0.020606 0.970245
vn -0.069231 -0.135168 0.988401
vn -0.070030 -0.134654 0.988415
vn 0.063398 -0.218297 0.973821
vn 0.995479 -0.063666 -0.070493
vn 0.995388 -0.064266 -0.071229
vn 0.995309 -0.064777 -0.071856
vn 0.994772 -0.068180 -0.076029
vn 0.713818 -0.073259 -0.696489
vn 0.753456 -0.148452 -0.640520
vn 0.753534 -0.148614 -0.640390
vn 0.795070 -0.248956 -0.553068
vn -0.801647 -0.505863 0.318535
vn -0.804781 -0.508576 0.306069
vn -0.805007 -0.508773 0.305147
vn -0.805658 -0.509341 0.302468
vn 0.064586 -0.285782 -0.956116
vn 0.193827 -0.190216 -0.962418
vn 0.207487 -0.179600 -0.961610
vn 0.331668 -0.078147 -0.940154
vn 0.068418 -0.239953 -0.968371
vn 0.017170 -0.121870 -0.992398
vn 0.047892 -0.192829 -0.980063
vn -0.008081 -0.063172 -0.997970
vn 0.544430 -0.140759 -0.826912
vn 0.640737 -0.036767 -0.766880
vn 0.695717 0.031975 -0.717604
vn 0.736165 0.089069 -0.670915
vn -0.641278 -0.363984 0.675483
vn -0.600177 -0.486455 0.634940
vn -0.579436 -0.535685 0.614243
vn -0.494501 -0.689967 0.528597
vn -0.717214 -0.312508 -0.622851
vn -0.619641 -0.217037 -0.754281
vn -0.639148 -0.235077 -0.732276
vn -0.495221 -0.110021 -0.861772
vn -0.868159 -0.453230 0.202195
vn -0.876866 -0.437258 0.199779
vn -0.903981 -0.382461 0.191159
vn -0.915993 -0.355119 0.186676
vn 0.981257 0.122942 -0.148394
vn 0.992280 0.067288 -0.104173
vn 0.988028 0.092003 -0.123843
vn 0.998023 0.013687 -0.061335
vn -0.053088 -0.972704 -0.225897
vn -0.156967 -0.965171 -0.209301
vn -0.621225 -0.777460 -0.098159
vn -0.674994 -0.733479 -0.079949
vn -0.114011 -0.353293 0.928540
vn -0.054908 -0.448606 0.892041
vn -0.046758 -0.461167 0.886080
vn 0.062355 -0.616139 0.785166
vn 0.902014 -0.211882 0.376135
vn 0.896853 -0.203227 0.392880
vn 0.896132 -0.202057 0.395121
vn 0.890884 -0.193777 0.410825
vn 0.987564 -0.044519 -0.150782
vn 0.994600 -0.022131 -0.101394
vn 0.996267 -0.014741 -0.085057
vn 0.999009 0.003638 -0.044354
vn 0.494771 -0.116646 -0.861160
vn 0.530246 -0.070280 -0.844926
vn 0.563135 -0.024575 -0.826000
vn 0.574599 -0.007937 -0.818396
vn -0.883219 -0.270446 0.383124
vn -0.910417 -0.204886 0.359393
vn -0.921525 -0.173419 0.347445
vn -0.926945 -0.156646 0.340933
vn -0.962108 -0.146899 0.229715
vn -0.993530 -0.067097 0.091628
vn -0.992411 -0.071833 0.099806
vn -0.995640 0.036098 -0.086010
vn -0.723763 -0.484358 -0.491492
vn -0.735604 -0.414834 -0.535537
vn -0.743843 -0.303895 -0.595270
vn -0.743029 -0.233330 -0.627268
vn -0.113323 0.380465 0.917826
vn -0.235798 0.655892 0.717081
vn -0.150202 0.413678 0.897948
vn -0.279167 0.709135 0.647452
vn -0.391571 0.837991 0.380059
vn -0.403142 0.841630 0.359354
vn -0.500363 0.865759 0.009953
vn -0.505441 0.862857 0.002902
vn -0.517634 0.739445 -0.430437
vn -0.541377 0.646602 -0.537417
vn -0.505189 0.088119 -0.858498
vn -0.563137 0.138586 -0.814660
vn 0.379792 0.909851 -0.167120
vn 0.383431 0.923569 0.001049
vn 0.383533 0.922502 -0.043513
vn 0.382708 0.922986 0.040387
vn 0.388097 0.920455 0.046297
vn 0.401688 0.876460 0.265452
vn 0.397444 0.903972 0.157713
vn 0.400380 0.830983 0.386217
vn 0.148203 0.978778 -0.141529
vn 0.155951 0.892301 -0.423649
vn 0.155681 0.909360 -0.385783
vn 0.155965 0.875748 -0.456881
vn -0.771982 0.433215 0.465155
vn -0.754953 0.557302 0.345632
vn -0.725565 0.643437 0.244019
vn -0.308643 0.870256 -0.383920
vn -0.426815 0.144208 -0.892767
vn -0.041648 -0.259476 -0.964851
vn -0.319956 0.021484 -0.947189
vn 0.027425 -0.322066 -0.946320
vn -0.938386 -0.021110 0.344944
vn -0.960163 0.039371 0.276652
vn -0.969725 0.078165 0.231352
vn -0.978252 0.157525 0.134938
vn 0.193497 0.711772 0.675233
vn 0.118731 0.977778 0.172782
vn 0.135315 0.953686 0.268649
vn 0.111381 0.984993 0.131846
vn -0.345384 0.359356 -0.866933
vn -0.345384 0.359356 -0.866933
vn -0.345384 0.359356 -0.866933
vn -0.372587 -0.739144 -0.561110
vn -0.408126 -0.751952 -0.517689
vn -0.316089 -0.821512 -0.474558
vn -0.410860 -0.761324 -0.501577
vn -0.438606 -0.731612 -0.521890
vn -0.374131 -0.816383 -0.439938
vn -0.379137 -0.804298 -0.457560
vn -0.262924 -0.903945 -0.337274
vn -0.280522 -0.890604 -0.357956
vn -0.167211 -0.955763 -0.241987
vn -0.101780 -0.971497 -0.214087
vn -0.097134 -0.973636 -0.206391
s 1
g polySurface6 polySurface5 polySurface2 Mesh
usemtl phong2SG
f 14//1 15//2 13//3
f 13//3 15//2 12//4
s 2
f 43//5 22//6 42//7
f 42//7 22//6 21//8
s 3
f 1//9 24//10 47//11
f 47//11 24//10 46//12
s 4
f 53//13 17//14 51//15
f 51//15 17//14 20//16
s 5
f 42//17 21//18 53//19
f 53//19 21//18 17//20
s 6
f 3//21 2//22 14//23
f 14//23 2//22 15//24
s 7
f 7//25 6//26 3//27
f 3//27 6//26 2//28
s 8
f 13//29 24//30 14//31
f 14//31 24//30 1//32
s 9
f 30//33 31//34 11//35
f 11//35 31//34 29//36
s off
f 11//37 5//38 4//39
s 10
f 14//40 1//41 3//42
f 3//42 1//41 16//43
s 11
f 35//44 8//45 25//46
f 25//46 8//45 10//47
s 12
f 45//48 46//49 23//50
f 23//50 46//49 24//51
s 13
f 11//52 4//53 30//54
f 30//54 4//53 41//55
s 14
f 16//56 1//57 48//58
f 48//58 1//57 47//59
s 15
f 22//60 43//61 18//62
f 18//62 43//61 44//63
s 16
f 9//64 8//65 36//66
f 36//66 8//65 35//67
s 17
f 3//68 16//69 7//70
f 7//70 16//69 19//71
s 18
f 19//72 49//73 20//74
f 20//74 49//73 50//75
s 19
f 29//76 23//77 11//78
f 11//78 23//77 5//79
s 20
f 10//80 20//81 25//82
f 25//82 20//81 17//83
s 21
f 6//84 9//85 37//86
f 37//86 9//85 36//87
s off
f 10//88 8//89 9//90
s 22
f 16//91 48//92 19//93
f 19//93 48//92 49//94
s 23
f 13//95 12//96 5//97
f 5//97 12//96 4//98
s 24
f 23//99 18//100 45//101
f 45//101 18//100 44//102
s 25
f 9//103 6//104 10//105
f 10//105 6//104 7//106
s 26
f 28//107 22//108 26//109
f 26//109 22//108 18//110
s 27
f 28//111 26//112 33//113
f 33//113 26//112 32//114
s 28
f 26//115 18//116 29//117
f 29//117 18//116 23//118
s 29
f 38//119 2//120 37//121
f 37//121 2//120 6//122
s 30
f 27//123 21//124 28//125
f 28//125 21//124 22//126
s 31
f 35//127 25//128 34//129
f 34//129 25//128 27//130
s 32
f 23//131 24//132 5//133
f 5//133 24//132 13//134
s 33
f 52//135 51//136 50//137
f 50//137 51//136 20//138
s 34
f 39//139 15//140 38//141
f 38//141 15//140 2//142
s 35
f 40//143 12//144 39//145
f 39//145 12//144 15//146
s 36
f 41//147 4//148 40//149
f 40//149 4//148 12//150
s 37
f 32//151 26//152 31//153
f 31//153 26//152 29//154
s 38
f 7//155 19//156 10//157
f 10//157 19//156 20//158
s 39
f 25//159 17//160 27//161
f 27//161 17//160 21//162
s 40
f 34//163 27//164 33//165
f 33//165 27//164 28//166
s 41
f 48//167 54//168 49//169
f 49//169 54//168 55//170
f 54//168 56//171 55//170
f 55//170 56//171 57//172
f 57//172 56//171 59//173
f 59//173 56//171 58//174
f 59//173 58//174 61//175
f 61//175 58//174 60//176
f 61//175 60//176 53//177
f 53//177 60//176 42//178
s 42
f 44//179 58//180 45//181
f 45//181 58//180 56//182
s 43
f 45//183 56//184 46//185
f 46//185 56//184 54//186
s 44
f 43//187 60//188 44//189
f 44//189 60//188 58//190
s 45
f 50//191 59//192 52//193
f 52//193 59//192 61//194
s 46
f 53//195 51//196 61//197
f 61//197 51//196 52//198
s 47
f 49//199 57//200 50//201
f 50//201 57//200 59//202
s 48
f 48//203 47//204 54//205
f 54//205 47//204 46//206
s off
f 43//207 42//208 60//209
s 49
f 39//210 38//211 40//212
f 40//212 38//211 41//213
f 38//211 37//214 41//213
f 37//214 36//215 41//213
f 41//213 36//215 30//216
f 36//215 35//217 30//216
f 30//216 35//217 31//218
f 31//218 35//217 32//219
f 35//217 34//220 32//219
f 34//220 33//221 32//219
g default
v 0.065079 -0.106709 0.123712
v 0.031866 -0.205732 0.067898
v 0.029583 -0.161482 0.116463
v 0.081461 -0.182472 -0.009353
v 0.083492 -0.150390 -0.011549
v 0.001395 -0.190826 0.058849
v -0.006653 -0.148727 0.108305
v -0.029371 -0.154675 0.030671
v -0.018629 -0.172880 0.036955
v -0.032166 -0.139380 0.056088
v 0.074936 -0.163983 -0.034592
v 0.083191 -0.199157 0.028245
v 0.087628 -0.158285 0.053989
v 0.066684 -0.164583 0.105261
v 0.065367 -0.210338 0.061623
v 0.029195 -0.109646 0.135489
v -0.067132 -0.090367 -0.050479
v 0.018099 -0.082806 -0.103275
v -0.012353 -0.106131 0.125233
v -0.055585 -0.088565 0.015763
v -0.062714 -0.083645 -0.098800
v -0.027475 -0.078423 -0.119717
v 0.071778 -0.099134 -0.046543
v 0.086510 -0.102233 0.048305
v -0.051520 -0.136320 -0.014478
v 0.006535 -0.123380 -0.103982
v -0.066611 -0.127733 -0.072192
v -0.038729 -0.120632 -0.107861
v 0.055272 -0.136651 -0.069635
v 0.068378 -0.185633 -0.049904
v 0.043541 -0.160918 -0.077636
v 0.003756 -0.145821 -0.102539
v -0.036634 -0.141807 -0.102466
v -0.057682 -0.147458 -0.065902
v -0.038089 -0.161281 -0.012761
v -0.016561 -0.185841 0.023182
v 0.000264 -0.206304 0.037588
v 0.026067 -0.229996 0.049318
v 0.063887 -0.247523 0.047293
v 0.082590 -0.230277 0.012156
v 0.078025 -0.208963 -0.024036
v -0.038726 -0.018466 -0.132506
v -0.005434 -0.012797 -0.143420
v 0.031696 -0.014250 -0.114588
v 0.070776 -0.019786 -0.055916
v 0.079665 -0.028112 0.035106
v 0.058710 -0.036267 0.113732
v 0.025188 -0.048089 0.135800
v -0.039514 -0.067192 0.135730
v -0.086402 -0.059430 0.008651
v -0.101726 -0.033595 -0.098991
v -0.136546 -0.031277 -0.100789
v -0.066349 -0.024094 -0.114369
v -0.001411 -0.031037 0.125448
v -0.054476 -0.050094 0.124667
v -0.029044 0.016929 0.050890
v -0.071416 -0.004183 0.052801
v -0.049099 0.029983 -0.057382
v -0.083487 0.009595 -0.050797
v -0.052120 -0.002416 -0.120517
v -0.082269 -0.013937 -0.105117
vn 0.886781 -0.332099 0.321448
vn 0.882578 -0.328049 0.336808
vn 0.883777 -0.329190 0.332524
vn 0.875764 -0.321750 0.359881
vn -0.263319 -0.248264 -0.932217
vn -0.422290 -0.264206 -0.867102
vn -0.322188 -0.254935 -0.911703
vn -0.462305 -0.267114 -0.845532
vn 0.952317 0.125504 0.278102
vn 0.953127 0.131310 0.272593
vn 0.953044 0.130693 0.273179
vn 0.953717 0.135847 0.268270
vn -0.126079 -0.687736 -0.714929
vn -0.873440 -0.483593 0.056918
vn -0.369297 -0.723457 -0.583292
vn -0.899025 -0.404505 0.167716
vn -0.495937 -0.247856 -0.832234
vn -0.970285 -0.114900 -0.212943
vn -0.695361 -0.221213 -0.683767
vn -0.990865 -0.087345 -0.102746
vn 0.141518 -0.728421 0.670354
vn 0.076721 -0.705048 0.704997
vn 0.114393 -0.719128 0.685397
vn 0.040430 -0.690212 0.722477
vn -0.384361 -0.732915 0.561340
vn -0.454300 -0.684061 0.570677
vn -0.415786 -0.711875 0.565999
vn -0.491025 -0.655302 0.573997
vn 0.921740 0.057280 0.383556
vn 0.949392 -0.015306 0.313721
vn 0.952125 -0.024383 0.304735
vn 0.961134 -0.059309 0.269638
vn 0.802643 0.162719 -0.573835
vn 0.802268 -0.083497 -0.591096
vn 0.808576 0.029466 -0.587653
vn 0.787312 -0.186879 -0.587551
vn 0.949024 -0.080933 -0.304635
vn 0.949024 -0.080933 -0.304635
vn 0.949024 -0.080933 -0.304635
vn 0.254770 -0.287306 0.923335
vn 0.292898 -0.309542 0.904652
vn 0.275901 -0.299669 0.913278
vn 0.318830 -0.324479 0.890540
vn -0.861494 -0.446980 0.240909
vn -0.844717 -0.490057 0.215168
vn -0.855879 -0.462246 0.231949
vn -0.840231 -0.500436 0.208748
vn 0.995274 0.001099 -0.097096
vn 0.991161 0.036543 -0.127529
vn 0.992314 0.028297 -0.120468
vn 0.986430 0.064186 -0.151117
vn 0.950699 -0.075190 -0.300862
vn 0.951602 0.003785 -0.307311
vn 0.951863 -0.009155 -0.306386
vn 0.949447 0.048741 -0.310121
vn 0.310656 0.015420 0.950397
vn 0.392627 0.078220 0.916365
vn 0.453788 0.126922 0.882025
vn 0.500845 0.165644 0.849539
vn 0.275101 -0.406993 -0.871020
vn 0.472547 -0.313472 -0.823672
vn 0.390001 -0.355891 -0.849259
vn 0.588817 -0.243942 -0.770576
vn -0.867680 -0.420395 0.265328
vn -0.875625 -0.418036 0.241923
vn -0.875343 -0.418127 0.242783
vn -0.876425 -0.417775 0.239466
vn -0.316137 -0.328979 0.889849
vn -0.281435 -0.360436 0.889314
vn -0.290586 -0.352271 0.889643
vn -0.251722 -0.386323 0.887350
vn -0.774406 -0.596798 0.210065
vn -0.760879 -0.613549 0.211237
vn -0.713461 -0.667081 0.214422
vn -0.696666 -0.684343 0.215248
vn 0.852067 -0.054446 -0.520593
vn 0.881488 -0.043722 -0.470179
vn 0.905409 -0.033897 -0.423184
vn 0.940513 -0.016736 -0.339345
vn -0.939559 -0.236662 0.247428
vn -0.951461 -0.218346 0.216905
vn -0.953540 -0.214883 0.211157
vn -0.965890 -0.192149 0.173597
vn -0.811138 -0.451457 0.371810
vn -0.819677 -0.456779 0.345662
vn -0.815770 -0.454338 0.357906
vn -0.829819 -0.463163 0.311257
vn -0.873174 -0.454051 0.177213
vn -0.873174 -0.454051 0.177213
vn -0.873174 -0.454051 0.177213
vn -0.241246 -0.020606 0.970245
vn -0.069231 -0.135168 0.988401
vn -0.070030 -0.134654 0.988415
vn 0.063398 -0.218297 0.973821
vn 0.995479 -0.063666 -0.070493
vn 0.995388 -0.064266 -0.071229
vn 0.995309 -0.064777 -0.071856
vn 0.994772 -0.068180 -0.076029
vn 0.713818 -0.073259 -0.696489
vn 0.753456 -0.148452 -0.640520
vn 0.753534 -0.148614 -0.640390
vn 0.795070 -0.248956 -0.553068
vn -0.801647 -0.505863 0.318535
vn -0.804781 -0.508576 0.306069
vn -0.805007 -0.508773 0.305147
vn -0.805658 -0.509341 0.302468
vn 0.064586 -0.285782 -0.956116
vn 0.193827 -0.190216 -0.962418
vn 0.207487 -0.179600 -0.961610
vn 0.331668 -0.078147 -0.940154
vn 0.068418 -0.239953 -0.968371
vn 0.017170 -0.121870 -0.992398
vn 0.047892 -0.192829 -0.980063
vn -0.008081 -0.063172 -0.997970
vn 0.544430 -0.140759 -0.826912
vn 0.640737 -0.036767 -0.766880
vn 0.695717 0.031975 -0.717604
vn 0.736165 0.089069 -0.670915
vn -0.641278 -0.363984 0.675483
vn -0.600177 -0.486455 0.634940
vn -0.579436 -0.535685 0.614243
vn -0.494501 -0.689967 0.528597
vn -0.717214 -0.312508 -0.622851
vn -0.619641 -0.217037 -0.754281
vn -0.639148 -0.235077 -0.732276
vn -0.495221 -0.110021 -0.861772
vn -0.868159 -0.453230 0.202195
vn -0.876866 -0.437258 0.199779
vn -0.903981 -0.382461 0.191159
vn -0.915993 -0.355119 0.186676
vn 0.981257 0.122942 -0.148394
vn 0.992280 0.067288 -0.104173
vn 0.988028 0.092003 -0.123843
vn 0.998023 0.013687 -0.061335
vn -0.053088 -0.972704 -0.225897
vn -0.156967 -0.965171 -0.209301
vn -0.621225 -0.777460 -0.098159
vn -0.674994 -0.733479 -0.079949
vn -0.114011 -0.353293 0.928540
vn -0.054908 -0.448606 0.892041
vn -0.046758 -0.461167 0.886080
vn 0.062355 -0.616139 0.785166
vn 0.902014 -0.211882 0.376135
vn 0.896853 -0.203227 0.392880
vn 0.896132 -0.202057 0.395121
vn 0.890884 -0.193777 0.410825
vn 0.987564 -0.044519 -0.150782
vn 0.994600 -0.022131 -0.101394
vn 0.996267 -0.014741 -0.085057
vn 0.999009 0.003638 -0.044354
vn 0.494771 -0.116646 -0.861160
vn 0.530246 -0.070280 -0.844926
vn 0.563135 -0.024575 -0.826000
vn 0.574599 -0.007937 -0.818396
vn -0.883219 -0.270446 0.383124
vn -0.910417 -0.204886 0.359393
vn -0.921525 -0.173419 0.347445
vn -0.926945 -0.156646 0.340933
vn -0.962108 -0.146899 0.229715
vn -0.993530 -0.067097 0.091628
vn -0.992411 -0.071833 0.099806
vn -0.995640 0.036098 -0.086010
vn -0.723763 -0.484358 -0.491492
vn -0.735604 -0.414834 -0.535537
vn -0.743843 -0.303895 -0.595270
vn -0.743029 -0.233330 -0.627268
vn -0.113323 0.380465 0.917826
vn -0.235798 0.655892 0.717081
vn -0.150202 0.413678 0.897948
vn -0.279167 0.709135 0.647452
vn -0.391571 0.837991 0.380059
vn -0.403142 0.841630 0.359354
vn -0.500363 0.865759 0.009953
vn -0.505441 0.862857 0.002902
vn -0.517634 0.739445 -0.430437
vn -0.541377 0.646602 -0.537417
vn -0.505189 0.088119 -0.858498
vn -0.563137 0.138586 -0.814660
vn 0.379792 0.909851 -0.167120
vn 0.383431 0.923569 0.001049
vn 0.383533 0.922502 -0.043513
vn 0.382708 0.922986 0.040387
vn 0.388097 0.920455 0.046297
vn 0.401688 0.876460 0.265452
vn 0.397444 0.903972 0.157713
vn 0.400380 0.830983 0.386217
vn 0.148203 0.978778 -0.141529
vn 0.155951 0.892301 -0.423649
vn 0.155681 0.909360 -0.385783
vn 0.155965 0.875748 -0.456881
vn -0.771982 0.433215 0.465155
vn -0.754953 0.557302 0.345632
vn -0.725565 0.643437 0.244019
vn -0.308643 0.870256 -0.383920
vn -0.426815 0.144208 -0.892767
vn -0.041648 -0.259476 -0.964851
vn -0.319956 0.021484 -0.947189
vn 0.027425 -0.322066 -0.946320
vn -0.938386 -0.021110 0.344944
vn -0.960163 0.039371 0.276652
vn -0.969725 0.078165 0.231352
vn -0.978252 0.157525 0.134938
vn 0.193497 0.711772 0.675233
vn 0.118731 0.977778 0.172782
vn 0.135315 0.953686 0.268649
vn 0.111381 0.984993 0.131846
vn -0.345384 0.359356 -0.866933
vn -0.345384 0.359356 -0.866933
vn -0.345384 0.359356 -0.866933
vn -0.372587 -0.739144 -0.561110
vn -0.408126 -0.751952 -0.517689
vn -0.316089 -0.821512 -0.474558
vn -0.410860 -0.761324 -0.501577
vn -0.438606 -0.731612 -0.521890
vn -0.374131 -0.816383 -0.439938
vn -0.379137 -0.804298 -0.457560
vn -0.262924 -0.903945 -0.337274
vn -0.280522 -0.890604 -0.357956
vn -0.167211 -0.955763 -0.241987
vn -0.101780 -0.971497 -0.214087
vn -0.097134 -0.973636 -0.206391
s 1
g polySurface6 polySurface5 polySurface2 Mesh
f 75//222 76//223 74//224
f 74//224 76//223 73//225
s 2
f 104//226 83//227 103//228
f 103//228 83//227 82//229
s 3
f 62//230 85//231 108//232
f 108//232 85//231 107//233
s 4
f 114//234 78//235 112//236
f 112//236 78//235 81//237
s 5
f 103//238 82//239 114//240
f 114//240 82//239 78//241
s 6
f 64//242 63//243 75//244
f 75//244 63//243 76//245
s 7
f 68//246 67//247 64//248
f 64//248 67//247 63//249
s 8
f 74//250 85//251 75//252
f 75//252 85//251 62//253
s 9
f 91//254 92//255 72//256
f 72//256 92//255 90//257
s off
f 72//258 66//259 65//260
s 10
f 75//261 62//262 64//263
f 64//263 62//262 77//264
s 11
f 96//265 69//266 86//267
f 86//267 69//266 71//268
s 12
f 106//269 107//270 84//271
f 84//271 107//270 85//272
s 13
f 72//273 65//274 91//275
f 91//275 65//274 102//276
s 14
f 77//277 62//278 109//279
f 109//279 62//278 108//280
s 15
f 83//281 104//282 79//283
f 79//283 104//282 105//284
s 16
f 70//285 69//286 97//287
f 97//287 69//286 96//288
s 17
f 64//289 77//290 68//291
f 68//291 77//290 80//292
s 18
f 80//293 110//294 81//295
f 81//295 110//294 111//296
s 19
f 90//297 84//298 72//299
f 72//299 84//298 66//300
s 20
f 71//301 81//302 86//303
f 86//303 81//302 78//304
s 21
f 67//305 70//306 98//307
f 98//307 70//306 97//308
s off
f 71//309 69//310 70//311
s 22
f 77//312 109//313 80//314
f 80//314 109//313 110//315
s 23
f 74//316 73//317 66//318
f 66//318 73//317 65//319
s 24
f 84//320 79//321 106//322
f 106//322 79//321 105//323
s 25
f 70//324 67//325 71//326
f 71//326 67//325 68//327
s 26
f 89//328 83//329 87//330
f 87//330 83//329 79//331
s 27
f 89//332 87//333 94//334
f 94//334 87//333 93//335
s 28
f 87//336 79//337 90//338
f 90//338 79//337 84//339
s 29
f 99//340 63//341 98//342
f 98//342 63//341 67//343
s 30
f 88//344 82//345 89//346
f 89//346 82//345 83//347
s 31
f 96//348 86//349 95//350
f 95//350 86//349 88//351
s 32
f 84//352 85//353 66//354
f 66//354 85//353 74//355
s 33
f 113//356 112//357 111//358
f 111//358 112//357 81//359
s 34
f 100//360 76//361 99//362
f 99//362 76//361 63//363
s 35
f 101//364 73//365 100//366
f 100//366 73//365 76//367
s 36
f 102//368 65//369 101//370
f 101//370 65//369 73//371
s 37
f 93//372 87//373 92//374
f 92//374 87//373 90//375
s 38
f 68//376 80//377 71//378
f 71//378 80//377 81//379
s 39
f 86//380 78//381 88//382
f 88//382 78//381 82//383
s 40
f 95//384 88//385 94//386
f 94//386 88//385 89//387
s 41
f 109//388 115//389 110//390
f 110//390 115//389 116//391
f 115//389 117//392 116//391
f 116//391 117//392 118//393
f 118//393 117//392 120//394
f 120//394 117//392 119//395
f 120//394 119//395 122//396
f 122//396 119//395 121//397
f 122//396 121//397 114//398
f 114//398 121//397 103//399
s 42
f 105//400 119//401 106//402
f 106//402 119//401 117//403
s 43
f 106//404 117//405 107//406
f 107//406 117//405 115//407
s 44
f 104//408 121//409 105//410
f 105//410 121//409 119//411
s 45
f 111//412 120//413 113//414
f 113//414 120//413 122//415
s 46
f 114//416 112//417 122//418
f 122//418 112//417 113//419
s 47
f 110//420 118//421 111//422
f 111//422 118//421 120//423
s 48
f 109//424 108//425 115//426
f 115//426 108//425 107//427
s off
f 104//428 103//429 121//430
s 49
f 100//431 99//432 101//433
f 101//433 99//432 102//434
f 99//432 98//435 102//434
f 98//435 97//436 102//434
f 102//434 97//436 91//437
f 97//436 96//438 91//437
f 91//437 96//438 92//439
f 92//439 96//438 93//440
f 96//438 95//441 93//440
f 95//441 94//442 93//440
