# This file uses centimeters as units for non-parametric coordinates.

mtllib Puerta.mtl
g default
v -0.056974 -1.787444 0.211050
v 1.921578 -1.787444 0.211050
v -0.056974 1.049934 0.211050
v 1.921578 1.049934 0.211050
v -0.056974 1.049934 0.011050
v 1.921578 1.049934 0.011050
v -0.056974 -1.787444 0.011050
v 1.921578 -1.787444 0.011050
v -0.034155 1.434824 0.211050
v -0.034155 1.434824 0.011050
v 0.094210 1.768900 0.211050
v 0.094210 1.768900 0.011050
v 0.358278 2.013240 0.211050
v 0.358278 2.013240 0.011050
v 0.727892 2.141898 0.211050
v 0.727892 2.141898 0.011050
v 1.136710 2.141898 0.211050
v 1.136710 2.141898 0.011050
v 1.506325 2.013242 0.211050
v 1.506325 2.013242 0.011050
v 1.770393 1.768901 0.211050
v 1.770393 1.768901 0.011050
v 1.898759 1.434825 0.211050
v 1.898759 1.434825 0.011050
vt 0.375000 0.000000
vt 0.625000 0.000000
vt 0.375000 0.250000
vt 0.625000 0.250000
vt 0.375000 0.500000
vt 0.625000 0.500000
vt 0.375000 0.750000
vt 0.625000 0.750000
vt 0.375000 1.000000
vt 0.625000 1.000000
vt 0.875000 0.000000
vt 0.875000 0.250000
vt 0.125000 0.000000
vt 0.125000 0.250000
vt 0.402778 0.250000
vt 0.208333 0.250000
vt 0.430556 0.250000
vt 0.291667 0.250000
vt 0.458333 0.250000
vt 0.375000 0.250000
vt 0.486111 0.250000
vt 0.458333 0.250000
vt 0.513889 0.250000
vt 0.541667 0.250000
vt 0.541667 0.250000
vt 0.625000 0.250000
vt 0.569444 0.250000
vt 0.708333 0.250000
vt 0.597222 0.250000
vt 0.791667 0.250000
vn 0.000000 0.000000 1.000000
vn 0.000000 0.000000 1.000000
vn 0.000000 0.000000 1.000000
vn 0.000000 0.000000 1.000000
vn 0.000000 0.000000 -1.000000
vn 0.000000 0.000000 -1.000000
vn 0.000000 0.000000 -1.000000
vn 0.000000 0.000000 -1.000000
vn 0.000000 -1.000000 0.000000
vn 0.000000 -1.000000 0.000000
vn 0.000000 -1.000000 0.000000
vn 0.000000 -1.000000 0.000000
vn 1.000000 0.000000 0.000000
vn 1.000000 0.000000 0.000000
vn 1.000000 0.000000 0.000000
vn 1.000000 0.000000 0.000000
vn -1.000000 0.000000 0.000000
vn -1.000000 0.000000 0.000000
vn -1.000000 0.000000 0.000000
vn -1.000000 0.000000 0.000000
vn -0.998247 0.059181 0.000000
vn -0.998247 0.059181 0.000000
vn -0.978599 0.205779 0.000000
vn -0.978599 0.205779 0.000000
vn -0.827518 0.561439 0.000000
vn -0.827518 0.561439 0.000000
vn -0.507266 0.861790 0.000000
vn -0.507266 0.861790 0.000000
vn -0.163066 0.986615 0.000000
vn -0.163066 0.986615 0.000000
vn 0.163063 0.986616 0.000000
vn 0.163063 0.986616 0.000000
vn 0.507265 0.861790 0.000000
vn 0.507265 0.861790 0.000000
vn 0.827518 0.561439 0.000000
vn 0.827518 0.561439 0.000000
vn 0.978598 0.205779 0.000000
vn 0.978598 0.205779 0.000000
vn 0.998247 0.059183 0.000000
vn 0.998247 0.059183 0.000000
vn 0.000000 0.000000 1.000000
vn 0.000000 0.000000 1.000000
vn 0.000000 0.000000 1.000000
vn 0.000000 0.000000 1.000000
vn 0.000000 0.000000 1.000000
vn 0.000000 0.000000 1.000000
vn 0.000000 0.000000 1.000000
vn 0.000000 0.000000 1.000000
vn 0.000000 0.000000 1.000000
vn 0.000000 0.000000 1.000000
vn 0.000000 0.000000 -1.000000
vn 0.000000 0.000000 -1.000000
vn 0.000000 0.000000 -1.000000
vn 0.000000 0.000000 -1.000000
vn 0.000000 0.000000 -1.000000
vn 0.000000 0.000000 -1.000000
vn 0.000000 0.000000 -1.000000
vn 0.000000 0.000000 -1.000000
vn 0.000000 0.000000 -1.000000
vn 0.000000 0.000000 -1.000000
s 1
g pasted__pCube18 group34
usemtl phong7SG
f 1/1/1 2/2/2 3/3/3
f 3/3/3 2/2/2 4/4/4
s 2
f 5/5/5 6/6/6 7/7/7
f 7/7/7 6/6/6 8/8/8
s 3
f 7/7/9 8/8/10 1/9/11
f 1/9/11 8/8/10 2/10/12
s 4
f 2/2/13 8/11/14 4/4/15
f 4/4/15 8/11/14 6/12/16
s 5
f 7/13/17 1/1/18 5/14/19
f 5/14/19 1/1/18 3/3/20
s 6
f 5/14/21 3/3/22 10/16/23
f 10/16/23 3/3/22 9/15/24
f 10/16/23 9/15/24 12/18/25
f 12/18/25 9/15/24 11/17/26
f 12/18/25 11/17/26 14/20/27
f 14/20/27 11/17/26 13/19/28
f 14/20/27 13/19/28 16/22/29
f 16/22/29 13/19/28 15/21/30
f 16/22/29 15/21/30 18/24/31
f 18/24/31 15/21/30 17/23/32
f 18/24/31 17/23/32 20/26/33
f 20/26/33 17/23/32 19/25/34
f 20/26/33 19/25/34 22/28/35
f 22/28/35 19/25/34 21/27/36
f 22/28/35 21/27/36 24/30/37
f 24/30/37 21/27/36 23/29/38
f 24/30/37 23/29/38 6/12/39
f 6/12/39 23/29/38 4/4/40
s 7
f 4/4/41 23/29/42 3/3/43
f 23/29/42 21/27/44 3/3/43
f 21/27/44 19/25/45 3/3/43
f 19/25/45 17/23/46 3/3/43
f 17/23/46 15/21/47 3/3/43
f 15/21/47 13/19/48 3/3/43
f 3/3/43 13/19/48 9/15/49
f 13/19/48 11/17/50 9/15/49
s 8
f 6/6/51 5/14/52 24/30/53
f 24/30/53 5/14/52 22/28/54
f 22/28/54 5/14/52 20/26/55
f 20/26/55 5/14/52 18/24/56
f 18/24/56 5/14/52 16/22/57
f 16/22/57 5/14/52 14/20/58
f 5/14/52 10/16/59 14/20/58
f 10/16/59 12/18/60 14/20/58
