# This file uses centimeters as units for non-parametric coordinates.

mtllib tibia.mtl
g default
v -0.243668 -2.621810 0.544387
v 0.229040 -2.621810 0.544387
v -0.243668 -2.357890 0.544387
v 0.229040 -2.357890 0.544387
v -0.243668 -1.621810 -0.455613
v 0.229040 -1.621810 -0.455613
v -0.243668 -2.621810 -0.455613
v 0.229040 -2.621810 -0.455613
v -0.109501 -2.981565 0.342058
v 0.103494 -2.981565 0.342058
v -0.109501 -2.981565 -0.324264
v 0.103494 -2.981565 -0.324264
v -0.109501 -0.031917 0.342058
v 0.103494 -0.031917 0.342058
v 0.103494 -0.031917 -0.324264
v -0.109501 -0.031917 -0.324264
v 0.240577 0.558773 -0.211491
v 0.240577 0.473718 -0.378418
v 0.240577 0.341244 -0.510893
v 0.240577 0.174316 -0.595947
v 0.240577 -0.010725 -0.625255
v 0.240577 -0.195766 -0.595947
v 0.240577 -0.362694 -0.510893
v 0.240577 -0.495168 -0.378418
v 0.240577 -0.580222 -0.211490
v 0.240577 -0.609530 -0.026450
v 0.240577 -0.580222 0.158591
v 0.240577 -0.495168 0.325519
v 0.240577 -0.362694 0.457994
v 0.240577 -0.195766 0.543047
v 0.240577 -0.010725 0.572355
v 0.240577 0.174316 0.543047
v 0.240577 0.341244 0.457993
v 0.240577 0.473718 0.325519
v 0.240577 0.558772 0.158591
v 0.240577 0.588080 -0.026450
v -0.234557 0.558773 -0.211491
v -0.234557 0.473718 -0.378418
v -0.234557 0.341244 -0.510893
v -0.234557 0.174316 -0.595947
v -0.234557 -0.010725 -0.625255
v -0.234557 -0.195766 -0.595947
v -0.234557 -0.362694 -0.510893
v -0.234557 -0.495168 -0.378418
v -0.234557 -0.580222 -0.211490
v -0.234557 -0.609530 -0.026450
v -0.234557 -0.580222 0.158591
v -0.234557 -0.495168 0.325519
v -0.234557 -0.362694 0.457994
v -0.234557 -0.195766 0.543047
v -0.234557 -0.010725 0.572355
v -0.234557 0.174316 0.543047
v -0.234557 0.341244 0.457993
v -0.234557 0.473718 0.325519
v -0.234557 0.558772 0.158591
v -0.234557 0.588080 -0.026450
v 0.240577 -0.010725 -0.026450
v -0.234557 -0.010725 -0.026450
vt 0.000000 0.000000
vt 1.000000 0.000000
vt 0.000000 1.000000
vt 1.000000 1.000000
vt 0.000000 2.000000
vt 1.000000 2.000000
vt 0.000000 3.000000
vt 1.000000 3.000000
vt 0.000000 4.000000
vt 1.000000 4.000000
vt 2.000000 0.000000
vt 2.000000 1.000000
vt -1.000000 0.000000
vt -1.000000 1.000000
vt 0.000000 2.500000
vt 1.000000 2.500000
vt 1.000000 3.000000
vt 0.000000 3.000000
vt 1.000000 4.000000
vt 0.000000 4.000000
vt 1.000000 0.000000
vt 2.000000 0.000000
vt 2.000000 0.500000
vt 1.000000 0.500000
vt 0.000000 0.000000
vt 0.000000 0.500000
vt -1.000000 0.000000
vt -1.000000 0.500000
vt 0.375000 0.312500
vt 0.387500 0.312500
vt 0.387500 0.688440
vt 0.375000 0.688440
vt 0.400000 0.312500
vt 0.400000 0.688440
vt 0.412500 0.312500
vt 0.412500 0.688440
vt 0.425000 0.312500
vt 0.425000 0.688440
vt 0.437500 0.312500
vt 0.437500 0.688440
vt 0.450000 0.312500
vt 0.450000 0.688440
vt 0.462500 0.312500
vt 0.462500 0.688440
vt 0.475000 0.312500
vt 0.475000 0.688440
vt 0.487500 0.312500
vt 0.487500 0.688440
vt 0.500000 0.312500
vt 0.500000 0.688440
vt 0.512500 0.312500
vt 0.512500 0.688440
vt 0.525000 0.312500
vt 0.525000 0.688440
vt 0.537500 0.312500
vt 0.537500 0.688440
vt 0.550000 0.312500
vt 0.550000 0.688440
vt 0.562500 0.312500
vt 0.562500 0.688440
vt 0.575000 0.312500
vt 0.575000 0.688440
vt 0.587500 0.312500
vt 0.587500 0.688440
vt 0.600000 0.312500
vt 0.600000 0.688440
vt 0.612500 0.312500
vt 0.612500 0.688440
vt 0.625000 0.312500
vt 0.625000 0.688440
vt 0.626409 0.064408
vt 0.648603 0.107966
vt 0.500000 0.150000
vt 0.591842 0.029841
vt 0.548284 0.007647
vt 0.500000 -0.000000
vt 0.451716 0.007647
vt 0.408159 0.029841
vt 0.373591 0.064409
vt 0.351397 0.107966
vt 0.343750 0.156250
vt 0.351397 0.204534
vt 0.373591 0.248091
vt 0.408159 0.282659
vt 0.451716 0.304853
vt 0.500000 0.312500
vt 0.548284 0.304853
vt 0.591841 0.282659
vt 0.626409 0.248091
vt 0.648603 0.204534
vt 0.656250 0.156250
vt 0.648603 0.892034
vt 0.626409 0.935591
vt 0.500000 0.837500
vt 0.591841 0.970159
vt 0.548284 0.992353
vt 0.500000 1.000000
vt 0.451716 0.992353
vt 0.408159 0.970159
vt 0.373591 0.935591
vt 0.351397 0.892034
vt 0.343750 0.843750
vt 0.351397 0.795466
vt 0.373591 0.751909
vt 0.408159 0.717341
vt 0.451716 0.695147
vt 0.500000 0.687500
vt 0.548284 0.695147
vt 0.591842 0.717341
vt 0.626409 0.751908
vt 0.648603 0.795466
vt 0.656250 0.843750
vn 0.000000 0.000000 1.000000
vn 0.000000 0.000000 1.000000
vn 0.000000 0.000000 1.000000
vn 0.000000 0.000000 1.000000
vn 0.000000 0.805349 0.592801
vn 0.000000 0.805349 0.592801
vn 0.000000 0.805349 0.592801
vn 0.000000 0.805349 0.592801
vn 0.000000 0.000000 -1.000000
vn 0.000000 0.000000 -1.000000
vn 0.000000 0.000000 -1.000000
vn 0.000000 0.000000 -1.000000
vn 0.000000 -1.000000 0.000000
vn 0.000000 -1.000000 0.000000
vn 0.000000 -1.000000 0.000000
vn 0.000000 -1.000000 0.000000
vn 1.000000 0.000000 0.000000
vn 1.000000 0.000000 0.000000
vn 1.000000 0.000000 0.000000
vn 1.000000 0.000000 0.000000
vn -1.000000 0.000000 0.000000
vn -1.000000 0.000000 0.000000
vn -1.000000 0.000000 0.000000
vn -1.000000 0.000000 0.000000
vn 0.000000 0.000000 -1.000000
vn 0.000000 0.000000 -1.000000
vn 0.000000 0.000000 -1.000000
vn 0.000000 0.000000 -1.000000
vn 0.000000 -1.000000 0.000000
vn 0.000000 -1.000000 0.000000
vn 0.000000 -1.000000 0.000000
vn 0.000000 -1.000000 0.000000
vn 1.000000 0.000000 0.000000
vn 1.000000 0.000000 0.000000
vn 1.000000 0.000000 0.000000
vn 1.000000 0.000000 0.000000
vn 0.000000 0.000000 1.000000
vn 0.000000 0.000000 1.000000
vn 0.000000 0.000000 1.000000
vn 0.000000 0.000000 1.000000
vn -1.000000 0.000000 0.000000
vn -1.000000 0.000000 0.000000
vn -1.000000 0.000000 0.000000
vn -1.000000 0.000000 0.000000
vn 0.000000 0.951056 -0.309018
vn 0.000000 0.809015 -0.587787
vn 0.000000 0.951058 -0.309013
vn 0.000000 0.809017 -0.587785
vn 0.000000 0.587784 -0.809018
vn 0.000000 0.587786 -0.809016
vn 0.000000 0.309017 -0.951057
vn 0.000000 0.309018 -0.951056
vn 0.000000 -0.000000 -1.000000
vn 0.000000 0.000000 -1.000000
vn 0.000000 -0.309017 -0.951056
vn 0.000000 -0.309017 -0.951057
vn 0.000000 -0.587786 -0.809016
vn 0.000000 -0.587784 -0.809018
vn 0.000000 -0.809017 -0.587785
vn 0.000000 -0.809016 -0.587786
vn 0.000000 -0.951057 -0.309015
vn 0.000000 -0.951056 -0.309018
vn 0.000000 -1.000000 0.000004
vn 0.000000 -1.000000 -0.000004
vn 0.000000 -0.951056 0.309018
vn 0.000000 -0.951057 0.309015
vn 0.000000 -0.809016 0.587786
vn 0.000000 -0.809017 0.587785
vn 0.000000 -0.587784 0.809018
vn 0.000000 -0.587786 0.809016
vn 0.000000 -0.309016 0.951057
vn 0.000000 -0.309017 0.951057
vn 0.000000 0.000000 1.000000
vn 0.000000 0.000000 1.000000
vn 0.000000 0.309018 0.951056
vn 0.000000 0.309017 0.951057
vn 0.000000 0.587785 0.809017
vn 0.000000 0.587785 0.809017
vn 0.000000 0.809016 0.587786
vn 0.000000 0.809016 0.587786
vn 0.000000 0.951057 0.309015
vn 0.000000 0.951057 0.309017
vn 0.000000 1.000000 -0.000002
vn 0.000000 1.000000 0.000004
vn 1.000000 -0.000001 0.000000
vn 1.000000 -0.000001 0.000000
vn 1.000000 0.000000 0.000000
vn 1.000000 0.000001 0.000000
vn 1.000000 0.000001 0.000000
vn 1.000000 0.000001 0.000000
vn 1.000000 0.000001 0.000000
vn 1.000000 0.000000 0.000000
vn 1.000000 0.000000 0.000000
vn 1.000000 0.000000 0.000000
vn 1.000000 0.000000 0.000000
vn 1.000000 0.000000 0.000000
vn 1.000000 0.000000 0.000000
vn 1.000000 0.000000 0.000000
vn 1.000000 0.000000 0.000000
vn 1.000000 0.000000 0.000000
vn 1.000000 0.000000 0.000000
vn 1.000000 -0.000001 0.000000
vn 1.000000 -0.000000 0.000000
vn 1.000000 0.000000 0.000000
vn 1.000000 0.000000 0.000000
vn -1.000000 0.000000 0.000000
vn -1.000000 0.000000 0.000000
vn -1.000000 0.000000 0.000000
vn -1.000000 0.000000 0.000000
vn -1.000000 -0.000001 0.000000
vn -1.000000 0.000000 0.000000
vn -1.000000 0.000001 0.000000
vn -1.000000 0.000000 0.000000
vn -1.000000 0.000000 0.000000
vn -1.000000 0.000000 0.000000
vn -1.000000 0.000000 0.000000
vn -1.000000 0.000000 0.000000
vn -1.000000 0.000000 0.000000
vn -1.000000 0.000000 0.000000
vn -1.000000 0.000000 0.000000
vn -1.000000 0.000000 0.000000
vn -1.000000 0.000000 0.000000
vn -1.000000 0.000000 0.000000
vn -1.000000 0.000000 0.000000
vn -1.000000 0.000000 0.000000
vn -1.000000 0.000000 0.000000
s 1
g left_leg1_feet_details
usemtl phong1SG
f 1/1/1 2/2/2 3/3/3
f 3/3/3 2/2/2 4/4/4
s 2
f 3/3/5 4/4/6 5/5/7
f 5/5/7 4/4/6 6/6/8
s 3
f 5/5/9 6/6/10 7/7/11
f 7/7/11 6/6/10 8/8/12
s 4
f 7/7/13 8/8/14 1/9/15
f 1/9/15 8/8/14 2/10/16
s 5
f 2/2/17 8/11/18 4/4/19
f 4/4/19 8/11/18 6/12/20
s 6
f 1/1/21 3/3/22 7/13/23
f 7/13/23 3/3/22 5/14/24
s 7
f 16/15/25 15/16/26 11/18/27
f 11/18/27 15/16/26 12/17/28
s 8
f 11/18/29 12/17/30 9/20/31
f 9/20/31 12/17/30 10/19/32
s 9
f 10/21/33 12/22/34 14/24/35
f 14/24/35 12/22/34 15/23/36
s 10
f 9/25/37 10/21/38 13/26/39
f 13/26/39 10/21/38 14/24/40
s 11
f 11/27/41 9/25/42 16/28/43
f 16/28/43 9/25/42 13/26/44
s 12
f 17/29/45 18/30/46 37/32/47
f 37/32/47 18/30/46 38/31/48
f 18/30/46 19/33/49 38/31/48
f 38/31/48 19/33/49 39/34/50
f 19/33/49 20/35/51 39/34/50
f 39/34/50 20/35/51 40/36/52
f 20/35/51 21/37/53 40/36/52
f 40/36/52 21/37/53 41/38/54
f 21/37/53 22/39/55 41/38/54
f 41/38/54 22/39/55 42/40/56
f 22/39/55 23/41/57 42/40/56
f 42/40/56 23/41/57 43/42/58
f 23/41/57 24/43/59 43/42/58
f 43/42/58 24/43/59 44/44/60
f 24/43/59 25/45/61 44/44/60
f 44/44/60 25/45/61 45/46/62
f 25/45/61 26/47/63 45/46/62
f 45/46/62 26/47/63 46/48/64
f 26/47/63 27/49/65 46/48/64
f 46/48/64 27/49/65 47/50/66
f 27/49/65 28/51/67 47/50/66
f 47/50/66 28/51/67 48/52/68
f 28/51/67 29/53/69 48/52/68
f 48/52/68 29/53/69 49/54/70
f 29/53/69 30/55/71 49/54/70
f 49/54/70 30/55/71 50/56/72
f 30/55/71 31/57/73 50/56/72
f 50/56/72 31/57/73 51/58/74
f 31/57/73 32/59/75 51/58/74
f 51/58/74 32/59/75 52/60/76
f 32/59/75 33/61/77 52/60/76
f 52/60/76 33/61/77 53/62/78
f 33/61/77 34/63/79 53/62/78
f 53/62/78 34/63/79 54/64/80
f 34/63/79 35/65/81 54/64/80
f 54/64/80 35/65/81 55/66/82
f 35/65/81 36/67/83 55/66/82
f 55/66/82 36/67/83 56/68/84
f 36/67/83 17/69/45 56/68/84
f 56/68/84 17/69/45 37/70/47
s 13
f 18/71/85 17/72/86 57/73/87
f 19/74/88 18/71/85 57/73/87
f 20/75/89 19/74/88 57/73/87
f 21/76/90 20/75/89 57/73/87
f 22/77/91 21/76/90 57/73/87
f 23/78/92 22/77/91 57/73/87
f 24/79/93 23/78/92 57/73/87
f 25/80/94 24/79/93 57/73/87
f 26/81/95 25/80/94 57/73/87
f 27/82/96 26/81/95 57/73/87
f 28/83/97 27/82/96 57/73/87
f 29/84/98 28/83/97 57/73/87
f 30/85/99 29/84/98 57/73/87
f 31/86/100 30/85/99 57/73/87
f 32/87/101 31/86/100 57/73/87
f 33/88/102 32/87/101 57/73/87
f 34/89/103 33/88/102 57/73/87
f 35/90/104 34/89/103 57/73/87
f 36/91/105 35/90/104 57/73/87
f 17/72/86 36/91/105 57/73/87
s 14
f 37/92/106 38/93/107 58/94/108
f 38/93/107 39/95/109 58/94/108
f 39/95/109 40/96/110 58/94/108
f 40/96/110 41/97/111 58/94/108
f 41/97/111 42/98/112 58/94/108
f 42/98/112 43/99/113 58/94/108
f 43/99/113 44/100/114 58/94/108
f 44/100/114 45/101/115 58/94/108
f 45/101/115 46/102/116 58/94/108
f 46/102/116 47/103/117 58/94/108
f 47/103/117 48/104/118 58/94/108
f 48/104/118 49/105/119 58/94/108
f 49/105/119 50/106/120 58/94/108
f 50/106/120 51/107/121 58/94/108
f 51/107/121 52/108/122 58/94/108
f 52/108/122 53/109/123 58/94/108
f 53/109/123 54/110/124 58/94/108
f 54/110/124 55/111/125 58/94/108
f 55/111/125 56/112/126 58/94/108
f 56/112/126 37/92/106 58/94/108
g default
v -0.243668 -2.621810 0.544387
v 0.229040 -2.621810 0.544387
v -0.243668 -2.357890 0.544387
v 0.229040 -2.357890 0.544387
v -0.243668 -1.621810 -0.455613
v 0.229040 -1.621810 -0.455613
v -0.243668 -2.621810 -0.455613
v 0.229040 -2.621810 -0.455613
v -0.109501 -2.981565 0.342058
v 0.103494 -2.981565 0.342058
v -0.109501 -2.981565 -0.324264
v 0.103494 -2.981565 -0.324264
v -0.109501 -0.031917 0.342058
v 0.103494 -0.031917 0.342058
v 0.103494 -0.031917 -0.324264
v -0.109501 -0.031917 -0.324264
v 0.240577 0.558773 -0.211491
v 0.240577 0.473718 -0.378418
v 0.240577 0.341244 -0.510893
v 0.240577 0.174316 -0.595947
v 0.240577 -0.010725 -0.625255
v 0.240577 -0.195766 -0.595947
v 0.240577 -0.362694 -0.510893
v 0.240577 -0.495168 -0.378418
v 0.240577 -0.580222 -0.211490
v 0.240577 -0.609530 -0.026450
v 0.240577 -0.580222 0.158591
v 0.240577 -0.495168 0.325519
v 0.240577 -0.362694 0.457994
v 0.240577 -0.195766 0.543047
v 0.240577 -0.010725 0.572355
v 0.240577 0.174316 0.543047
v 0.240577 0.341244 0.457993
v 0.240577 0.473718 0.325519
v 0.240577 0.558772 0.158591
v 0.240577 0.588080 -0.026450
v -0.234557 0.558773 -0.211491
v -0.234557 0.473718 -0.378418
v -0.234557 0.341244 -0.510893
v -0.234557 0.174316 -0.595947
v -0.234557 -0.010725 -0.625255
v -0.234557 -0.195766 -0.595947
v -0.234557 -0.362694 -0.510893
v -0.234557 -0.495168 -0.378418
v -0.234557 -0.580222 -0.211490
v -0.234557 -0.609530 -0.026450
v -0.234557 -0.580222 0.158591
v -0.234557 -0.495168 0.325519
v -0.234557 -0.362694 0.457994
v -0.234557 -0.195766 0.543047
v -0.234557 -0.010725 0.572355
v -0.234557 0.174316 0.543047
v -0.234557 0.341244 0.457993
v -0.234557 0.473718 0.325519
v -0.234557 0.558772 0.158591
v -0.234557 0.588080 -0.026450
v 0.240577 -0.010725 -0.026450
v -0.234557 -0.010725 -0.026450
vt 0.000000 0.000000
vt 1.000000 0.000000
vt 0.000000 1.000000
vt 1.000000 1.000000
vt 0.000000 2.000000
vt 1.000000 2.000000
vt 0.000000 3.000000
vt 1.000000 3.000000
vt 0.000000 4.000000
vt 1.000000 4.000000
vt 2.000000 0.000000
vt 2.000000 1.000000
vt -1.000000 0.000000
vt -1.000000 1.000000
vt 0.000000 2.500000
vt 1.000000 2.500000
vt 1.000000 3.000000
vt 0.000000 3.000000
vt 1.000000 4.000000
vt 0.000000 4.000000
vt 1.000000 0.000000
vt 2.000000 0.000000
vt 2.000000 0.500000
vt 1.000000 0.500000
vt 0.000000 0.000000
vt 0.000000 0.500000
vt -1.000000 0.000000
vt -1.000000 0.500000
vt 0.375000 0.312500
vt 0.387500 0.312500
vt 0.387500 0.688440
vt 0.375000 0.688440
vt 0.400000 0.312500
vt 0.400000 0.688440
vt 0.412500 0.312500
vt 0.412500 0.688440
vt 0.425000 0.312500
vt 0.425000 0.688440
vt 0.437500 0.312500
vt 0.437500 0.688440
vt 0.450000 0.312500
vt 0.450000 0.688440
vt 0.462500 0.312500
vt 0.462500 0.688440
vt 0.475000 0.312500
vt 0.475000 0.688440
vt 0.487500 0.312500
vt 0.487500 0.688440
vt 0.500000 0.312500
vt 0.500000 0.688440
vt 0.512500 0.312500
vt 0.512500 0.688440
vt 0.525000 0.312500
vt 0.525000 0.688440
vt 0.537500 0.312500
vt 0.537500 0.688440
vt 0.550000 0.312500
vt 0.550000 0.688440
vt 0.562500 0.312500
vt 0.562500 0.688440
vt 0.575000 0.312500
vt 0.575000 0.688440
vt 0.587500 0.312500
vt 0.587500 0.688440
vt 0.600000 0.312500
vt 0.600000 0.688440
vt 0.612500 0.312500
vt 0.612500 0.688440
vt 0.625000 0.312500
vt 0.625000 0.688440
vt 0.626409 0.064408
vt 0.648603 0.107966
vt 0.500000 0.150000
vt 0.591842 0.029841
vt 0.548284 0.007647
vt 0.500000 -0.000000
vt 0.451716 0.007647
vt 0.408159 0.029841
vt 0.373591 0.064409
vt 0.351397 0.107966
vt 0.343750 0.156250
vt 0.351397 0.204534
vt 0.373591 0.248091
vt 0.408159 0.282659
vt 0.451716 0.304853
vt 0.500000 0.312500
vt 0.548284 0.304853
vt 0.591841 0.282659
vt 0.626409 0.248091
vt 0.648603 0.204534
vt 0.656250 0.156250
vt 0.648603 0.892034
vt 0.626409 0.935591
vt 0.500000 0.837500
vt 0.591841 0.970159
vt 0.548284 0.992353
vt 0.500000 1.000000
vt 0.451716 0.992353
vt 0.408159 0.970159
vt 0.373591 0.935591
vt 0.351397 0.892034
vt 0.343750 0.843750
vt 0.351397 0.795466
vt 0.373591 0.751909
vt 0.408159 0.717341
vt 0.451716 0.695147
vt 0.500000 0.687500
vt 0.548284 0.695147
vt 0.591842 0.717341
vt 0.626409 0.751908
vt 0.648603 0.795466
vt 0.656250 0.843750
vn 0.000000 0.000000 1.000000
vn 0.000000 0.000000 1.000000
vn 0.000000 0.000000 1.000000
vn 0.000000 0.000000 1.000000
vn 0.000000 0.805349 0.592801
vn 0.000000 0.805349 0.592801
vn 0.000000 0.805349 0.592801
vn 0.000000 0.805349 0.592801
vn 0.000000 0.000000 -1.000000
vn 0.000000 0.000000 -1.000000
vn 0.000000 0.000000 -1.000000
vn 0.000000 0.000000 -1.000000
vn 0.000000 -1.000000 0.000000
vn 0.000000 -1.000000 0.000000
vn 0.000000 -1.000000 0.000000
vn 0.000000 -1.000000 0.000000
vn 1.000000 0.000000 0.000000
vn 1.000000 0.000000 0.000000
vn 1.000000 0.000000 0.000000
vn 1.000000 0.000000 0.000000
vn -1.000000 0.000000 0.000000
vn -1.000000 0.000000 0.000000
vn -1.000000 0.000000 0.000000
vn -1.000000 0.000000 0.000000
vn 0.000000 0.000000 -1.000000
vn 0.000000 0.000000 -1.000000
vn 0.000000 0.000000 -1.000000
vn 0.000000 0.000000 -1.000000
vn 0.000000 -1.000000 0.000000
vn 0.000000 -1.000000 0.000000
vn 0.000000 -1.000000 0.000000
vn 0.000000 -1.000000 0.000000
vn 1.000000 0.000000 0.000000
vn 1.000000 0.000000 0.000000
vn 1.000000 0.000000 0.000000
vn 1.000000 0.000000 0.000000
vn 0.000000 0.000000 1.000000
vn 0.000000 0.000000 1.000000
vn 0.000000 0.000000 1.000000
vn 0.000000 0.000000 1.000000
vn -1.000000 0.000000 0.000000
vn -1.000000 0.000000 0.000000
vn -1.000000 0.000000 0.000000
vn -1.000000 0.000000 0.000000
vn 0.000000 0.951056 -0.309018
vn 0.000000 0.809015 -0.587787
vn 0.000000 0.951058 -0.309013
vn 0.000000 0.809017 -0.587785
vn 0.000000 0.587784 -0.809018
vn 0.000000 0.587786 -0.809016
vn 0.000000 0.309017 -0.951057
vn 0.000000 0.309018 -0.951056
vn 0.000000 -0.000000 -1.000000
vn 0.000000 0.000000 -1.000000
vn 0.000000 -0.309017 -0.951056
vn 0.000000 -0.309017 -0.951057
vn 0.000000 -0.587786 -0.809016
vn 0.000000 -0.587784 -0.809018
vn 0.000000 -0.809017 -0.587785
vn 0.000000 -0.809016 -0.587786
vn 0.000000 -0.951057 -0.309015
vn 0.000000 -0.951056 -0.309018
vn 0.000000 -1.000000 0.000004
vn 0.000000 -1.000000 -0.000004
vn 0.000000 -0.951056 0.309018
vn 0.000000 -0.951057 0.309015
vn 0.000000 -0.809016 0.587786
vn 0.000000 -0.809017 0.587785
vn 0.000000 -0.587784 0.809018
vn 0.000000 -0.587786 0.809016
vn 0.000000 -0.309016 0.951057
vn 0.000000 -0.309017 0.951057
vn 0.000000 0.000000 1.000000
vn 0.000000 0.000000 1.000000
vn 0.000000 0.309018 0.951056
vn 0.000000 0.309017 0.951057
vn 0.000000 0.587785 0.809017
vn 0.000000 0.587785 0.809017
vn 0.000000 0.809016 0.587786
vn 0.000000 0.809016 0.587786
vn 0.000000 0.951057 0.309015
vn 0.000000 0.951057 0.309017
vn 0.000000 1.000000 -0.000002
vn 0.000000 1.000000 0.000004
vn 1.000000 -0.000001 0.000000
vn 1.000000 -0.000001 0.000000
vn 1.000000 0.000000 0.000000
vn 1.000000 0.000001 0.000000
vn 1.000000 0.000001 0.000000
vn 1.000000 0.000001 0.000000
vn 1.000000 0.000001 0.000000
vn 1.000000 0.000000 0.000000
vn 1.000000 0.000000 0.000000
vn 1.000000 0.000000 0.000000
vn 1.000000 0.000000 0.000000
vn 1.000000 0.000000 0.000000
vn 1.000000 0.000000 0.000000
vn 1.000000 0.000000 0.000000
vn 1.000000 0.000000 0.000000
vn 1.000000 0.000000 0.000000
vn 1.000000 0.000000 0.000000
vn 1.000000 -0.000001 0.000000
vn 1.000000 -0.000000 0.000000
vn 1.000000 0.000000 0.000000
vn 1.000000 0.000000 0.000000
vn -1.000000 0.000000 0.000000
vn -1.000000 0.000000 0.000000
vn -1.000000 0.000000 0.000000
vn -1.000000 0.000000 0.000000
vn -1.000000 -0.000001 0.000000
vn -1.000000 0.000000 0.000000
vn -1.000000 0.000001 0.000000
vn -1.000000 0.000000 0.000000
vn -1.000000 0.000000 0.000000
vn -1.000000 0.000000 0.000000
vn -1.000000 0.000000 0.000000
vn -1.000000 0.000000 0.000000
vn -1.000000 0.000000 0.000000
vn -1.000000 0.000000 0.000000
vn -1.000000 0.000000 0.000000
vn -1.000000 0.000000 0.000000
vn -1.000000 0.000000 0.000000
vn -1.000000 0.000000 0.000000
vn -1.000000 0.000000 0.000000
vn -1.000000 0.000000 0.000000
vn -1.000000 0.000000 0.000000
s 1
g left_leg1_feet_details
f 59/113/127 60/114/128 61/115/129
f 61/115/129 60/114/128 62/116/130
s 2
f 61/115/131 62/116/132 63/117/133
f 63/117/133 62/116/132 64/118/134
s 3
f 63/117/135 64/118/136 65/119/137
f 65/119/137 64/118/136 66/120/138
s 4
f 65/119/139 66/120/140 59/121/141
f 59/121/141 66/120/140 60/122/142
s 5
f 60/114/143 66/123/144 62/116/145
f 62/116/145 66/123/144 64/124/146
s 6
f 59/113/147 61/115/148 65/125/149
f 65/125/149 61/115/148 63/126/150
s 7
f 74/127/151 73/128/152 69/130/153
f 69/130/153 73/128/152 70/129/154
s 8
f 69/130/155 70/129/156 67/132/157
f 67/132/157 70/129/156 68/131/158
s 9
f 68/133/159 70/134/160 72/136/161
f 72/136/161 70/134/160 73/135/162
s 10
f 67/137/163 68/133/164 71/138/165
f 71/138/165 68/133/164 72/136/166
s 11
f 69/139/167 67/137/168 74/140/169
f 74/140/169 67/137/168 71/138/170
s 12
f 75/141/171 76/142/172 95/144/173
f 95/144/173 76/142/172 96/143/174
f 76/142/172 77/145/175 96/143/174
f 96/143/174 77/145/175 97/146/176
f 77/145/175 78/147/177 97/146/176
f 97/146/176 78/147/177 98/148/178
f 78/147/177 79/149/179 98/148/178
f 98/148/178 79/149/179 99/150/180
f 79/149/179 80/151/181 99/150/180
f 99/150/180 80/151/181 100/152/182
f 80/151/181 81/153/183 100/152/182
f 100/152/182 81/153/183 101/154/184
f 81/153/183 82/155/185 101/154/184
f 101/154/184 82/155/185 102/156/186
f 82/155/185 83/157/187 102/156/186
f 102/156/186 83/157/187 103/158/188
f 83/157/187 84/159/189 103/158/188
f 103/158/188 84/159/189 104/160/190
f 84/159/189 85/161/191 104/160/190
f 104/160/190 85/161/191 105/162/192
f 85/161/191 86/163/193 105/162/192
f 105/162/192 86/163/193 106/164/194
f 86/163/193 87/165/195 106/164/194
f 106/164/194 87/165/195 107/166/196
f 87/165/195 88/167/197 107/166/196
f 107/166/196 88/167/197 108/168/198
f 88/167/197 89/169/199 108/168/198
f 108/168/198 89/169/199 109/170/200
f 89/169/199 90/171/201 109/170/200
f 109/170/200 90/171/201 110/172/202
f 90/171/201 91/173/203 110/172/202
f 110/172/202 91/173/203 111/174/204
f 91/173/203 92/175/205 111/174/204
f 111/174/204 92/175/205 112/176/206
f 92/175/205 93/177/207 112/176/206
f 112/176/206 93/177/207 113/178/208
f 93/177/207 94/179/209 113/178/208
f 113/178/208 94/179/209 114/180/210
f 94/179/209 75/181/171 114/180/210
f 114/180/210 75/181/171 95/182/173
s 13
f 76/183/211 75/184/212 115/185/213
f 77/186/214 76/183/211 115/185/213
f 78/187/215 77/186/214 115/185/213
f 79/188/216 78/187/215 115/185/213
f 80/189/217 79/188/216 115/185/213
f 81/190/218 80/189/217 115/185/213
f 82/191/219 81/190/218 115/185/213
f 83/192/220 82/191/219 115/185/213
f 84/193/221 83/192/220 115/185/213
f 85/194/222 84/193/221 115/185/213
f 86/195/223 85/194/222 115/185/213
f 87/196/224 86/195/223 115/185/213
f 88/197/225 87/196/224 115/185/213
f 89/198/226 88/197/225 115/185/213
f 90/199/227 89/198/226 115/185/213
f 91/200/228 90/199/227 115/185/213
f 92/201/229 91/200/228 115/185/213
f 93/202/230 92/201/229 115/185/213
f 94/203/231 93/202/230 115/185/213
f 75/184/212 94/203/231 115/185/213
s 14
f 95/204/232 96/205/233 116/206/234
f 96/205/233 97/207/235 116/206/234
f 97/207/235 98/208/236 116/206/234
f 98/208/236 99/209/237 116/206/234
f 99/209/237 100/210/238 116/206/234
f 100/210/238 101/211/239 116/206/234
f 101/211/239 102/212/240 116/206/234
f 102/212/240 103/213/241 116/206/234
f 103/213/241 104/214/242 116/206/234
f 104/214/242 105/215/243 116/206/234
f 105/215/243 106/216/244 116/206/234
f 106/216/244 107/217/245 116/206/234
f 107/217/245 108/218/246 116/206/234
f 108/218/246 109/219/247 116/206/234
f 109/219/247 110/220/248 116/206/234
f 110/220/248 111/221/249 116/206/234
f 111/221/249 112/222/250 116/206/234
f 112/222/250 113/223/251 116/206/234
f 113/223/251 114/224/252 116/206/234
f 114/224/252 95/204/232 116/206/234
