# This file uses centimeters as units for non-parametric coordinates.

mtllib femurdino.mtl
g default
v 0.075532 -0.053591 0.146990
v 0.040036 -0.108364 0.139741
v 0.093945 -0.097272 0.011729
v 0.003800 -0.095609 0.131583
v -0.021713 -0.086262 0.079366
v 0.085389 -0.110865 -0.011314
v 0.098081 -0.105167 0.077267
v 0.077137 -0.111465 0.128539
v 0.039648 -0.056528 0.158767
v -0.056679 -0.037249 -0.027201
v 0.028552 -0.029688 -0.079997
v -0.001900 -0.053013 0.148511
v -0.045132 -0.035447 0.039041
v -0.052261 -0.030527 -0.075522
v -0.017022 -0.025305 -0.096439
v 0.082231 -0.046016 -0.023265
v 0.096963 -0.049115 0.071583
v -0.041067 -0.083202 0.008800
v 0.016988 -0.070262 -0.080704
v -0.056158 -0.074615 -0.048914
v -0.028276 -0.067514 -0.084583
v 0.065725 -0.083533 -0.046357
v -0.028273 0.034652 -0.123660
v 0.005019 0.040321 -0.120142
v 0.042149 0.038868 -0.091310
v 0.081229 0.033332 -0.032638
v 0.090118 0.025006 0.058384
v 0.069163 0.016851 0.137010
v 0.035641 0.005029 0.159078
v -0.029061 -0.014074 0.159008
v -0.075949 -0.006312 0.031929
v -0.091273 0.019523 -0.075713
v -0.126093 0.021841 -0.077511
v -0.055896 0.029024 -0.105523
vn -0.009700 -0.531501 -0.847002
vn 0.430029 -0.391827 -0.813355
vn -0.008000 -0.334995 -0.942186
vn -0.759743 -0.277716 -0.587933
vn 0.707501 -0.031700 0.706001
vn 0.993526 0.063502 0.094202
vn 0.993715 0.075001 0.083101
vn 0.821186 0.096798 0.562391
vn -0.295022 -0.902066 -0.315023
vn -0.305918 -0.716843 -0.626538
vn -0.932111 -0.355004 -0.071701
vn -0.844634 -0.512321 0.155306
vn -0.305918 -0.716843 -0.626538
vn -0.009700 -0.531501 -0.847002
vn -0.759743 -0.277716 -0.587933
vn -0.932111 -0.355004 -0.071701
vn 0.615530 -0.407920 0.674333
vn 0.980728 -0.105403 0.164505
vn 0.993526 0.063502 0.094202
vn 0.707501 -0.031700 0.706001
vn -0.087503 -0.553219 0.828428
vn 0.615530 -0.407920 0.674333
vn 0.707501 -0.031700 0.706001
vn 0.092606 -0.185012 0.978363
vn 0.906943 -0.021201 -0.420720
vn 0.939360 -0.052303 -0.338922
vn 0.993715 0.075001 0.083101
vn 0.993526 0.063502 0.094202
vn 0.092606 -0.185012 0.978363
vn 0.707501 -0.031700 0.706001
vn 0.821186 0.096798 0.562391
vn 0.361196 -0.063999 0.930291
vn 0.548835 -0.177111 -0.816953
vn -0.008000 -0.334995 -0.942186
vn 0.430029 -0.391827 -0.813355
vn 0.715914 -0.223605 -0.661413
vn -0.087503 -0.553219 0.828428
vn 0.092606 -0.185012 0.978363
vn -0.531226 -0.361918 0.766038
vn -0.639815 -0.455611 0.618915
vn -0.531226 -0.361918 0.766038
vn 0.243921 -0.879175 0.409335
vn -0.173597 -0.972383 -0.155997
vn -0.844634 -0.512321 0.155306
vn 0.744031 -0.028701 -0.667528
vn 0.906943 -0.021201 -0.420720
vn 0.976010 -0.009900 -0.217502
vn 0.905623 -0.034101 -0.422711
vn -0.927731 -0.316211 0.198307
vn -0.891026 -0.342610 0.297809
vn -0.844634 -0.512321 0.155306
vn -0.932111 -0.355004 -0.071701
vn 0.092606 -0.185012 0.978363
vn 0.361196 -0.063999 0.930291
vn 0.243921 -0.879175 0.409335
vn -0.531226 -0.361918 0.766038
vn 0.939360 -0.052303 -0.338922
vn 0.906943 -0.021201 -0.420720
vn 0.548835 -0.177111 -0.816953
vn 0.715914 -0.223605 -0.661413
vn -0.348497 -0.253098 -0.902492
vn -0.008000 -0.334995 -0.942186
vn 0.548835 -0.177111 -0.816953
vn 0.366399 -0.108600 -0.924098
vn 0.366399 -0.108600 -0.924098
vn 0.548835 -0.177111 -0.816953
vn 0.906943 -0.021201 -0.420720
vn 0.744031 -0.028701 -0.667528
vn -0.935404 -0.263201 -0.236101
vn -0.759743 -0.277716 -0.587933
vn -0.008000 -0.334995 -0.942186
vn -0.348497 -0.253098 -0.902492
vn 0.976010 -0.009900 -0.217502
vn 0.906943 -0.021201 -0.420720
vn 0.993526 0.063502 0.094202
vn 0.980728 -0.105403 0.164505
vn 0.179798 -0.938492 -0.294797
vn -0.295022 -0.902066 -0.315023
vn -0.844634 -0.512321 0.155306
vn -0.173597 -0.972383 -0.155997
vn -0.639815 -0.455611 0.618915
vn -0.531226 -0.361918 0.766038
vn -0.844634 -0.512321 0.155306
vn -0.891026 -0.342610 0.297809
vn -0.927731 -0.316211 0.198307
vn -0.932111 -0.355004 -0.071701
vn -0.759743 -0.277716 -0.587933
vn -0.935404 -0.263201 -0.236101
s off
g polySurface8 polySurface4 polySurface2 Mesh
usemtl phong1SG
f 23//1 24//2 15//3 14//4
f 1//5 17//6 27//7 28//8
f 32//9 34//10 10//11 13//12
f 34//13 23//14 14//15 10//16
f 8//17 7//18 17//19 1//20
f 2//21 8//22 1//23 9//24
f 16//25 26//26 27//27 17//28
f 9//29 1//30 28//31 29//32
f 11//33 15//34 24//35 25//36
f 2//37 9//38 12//39 4//40
f 12//41 30//42 31//43 13//44
f 22//45 16//46 3//47 6//48
f 18//49 5//50 13//51 10//52
f 9//53 29//54 30//55 12//56
f 26//57 16//58 11//59 25//60
f 21//61 15//62 11//63 19//64
f 19//65 11//66 16//67 22//68
f 20//69 14//70 15//71 21//72
f 3//73 16//74 17//75 7//76
f 33//77 32//78 13//79 31//80
f 4//81 12//82 13//83 5//84
f 18//85 10//86 14//87 20//88
